# xmcd CD database file
#
# Track frame offsets:
#	150
#	42389
#	86248
#	111412
#	163450
#	205813
#	224343
#	247714
#	264041
#	273348
#	288248
#
# Disc length: 4112 seconds
#
# Revision: 0
# Processed by: cddbd v1.5.2PL0 Copyright (c) Steve Scherf et al.
# Submitted via: CDex 1.91
#
DISCID=a1100e0b
DTITLE=Miles Davis  - Jazz Manifesto - Kind of Blue
DYEAR=1959
DGENRE=Jazz
TTITLE0=So What
TTITLE1=Freddie Freeloader
TTITLE2=Blue in Green
TTITLE3=All Blues
TTITLE4=Flamenco Sketches
TTITLE5=The Buzzard Song
TTITLE6=Bess, You Is My Woman Now
TTITLE7=Gone
TTITLE8=Gone, Gone, Gone
TTITLE9=Summertime
TTITLE10=Oh Bess, Oh Where's My Bess?
EXTD=YEAR: 1959
EXTT0=
EXTT1=
EXTT2=
EXTT3=
EXTT4=
EXTT5=
EXTT6=
EXTT7=
EXTT8=
EXTT9=
EXTT10=
PLAYORDER=
